# xmcd CD database file
#
# Track frame offsets:
#	150
#	15900
#	29627
#	44515
#	57902
#	70577
#	84190
#	99787
#	112727
#	128102
#	140515
#	154990
#	169652
#	185102
#	199237
#	213002
#	225452
#	239552
#	252227
#	266065
#	280090
#	293702
#	307540
#	319665
#
# Disc length: 4426 seconds
#
# Revision: 0
# Processed by: cddbd v1.5.1PL0 Copyright (c) Steve Scherf et al.
# Submitted via: CDex 1.51
#
DISCID=43114818
DTITLE=Various Artist - Honolulu to Hollywood - Jazz, Blues and Popular Specialities performed Hawaiian Style
DYEAR=1900
DGENRE=Jazz
TTITLE0=The Los Angeles Biltmore Hotel Trio - Hard To Get Gertie
TTITLE1=King Nawahi Hawaiians - I Want To Dream By The Old Mill Stream
TTITLE2=Andrew Iona Novelty Four - Hula Girl
TTITLE3=Sol Hoopii - Singing The Blues
TTITLE4=Chick Daniels and his Royal Hawaiians - Buckin' Horse Hula
TTITLE5=Johnny Noble and his Hawaiians - I Went To Hilo
TTITLE6=Andy Aiona's Novelty Four - That Lovin' Hula
TTITLE7=Sam-Ku-West Harmony Boys - Sunkist Hawaii
TTITLE8=Sol Hoopii - Radio Blues
TTITLE9=Chick Daniels and his Royal Hawaiians - Little Brown Girl
TTITLE10=King Nawahi Hawaiians - Under A Texas Moon
TTITLE11=Kane's Hawaiians - Kane's Blues
TTITLE12=Sol Hoopii's Novelty Trio (w Andy Aion's Saxophone Trio) - Hano Hano Hawaii
TTITLE13=Kalama's Quartette - When Summer Is Gone
TTITLE14=Sol K. Bright and his Hollywaiians - Heat Wave
TTITLE15=Andy Iona and his Islanders - Beulah (My Hawaiian Dancing Queen)
TTITLE16=Sam Ku West and his Royal Hawaiians - Someday Sweetheart
TTITLE17=David Kaonohi and his Honoluans - In A Canoe
TTITLE18=Andy Aiona's Novelty Four - Keko
TTITLE19=Jim and Bob - Coffee In The Morning And Kisses At Night
TTITLE20=Andy Aiona's Novelty Four - Paahana
TTITLE21=Kalama's Quartette - When The Sun Goes Down
TTITLE22=The Los Angeles Biltmore Hotel Trio - Clownin' The Frets
TTITLE23=Sol K. Bright and his Hollywaiians -  A Wee Doech and Doris
EXTD=
EXTT0=
EXTT1=
EXTT2=
EXTT3=
EXTT4=
EXTT5=
EXTT6=
EXTT7=
EXTT8=
EXTT9=
EXTT10=
EXTT11=
EXTT12=
EXTT13=
EXTT14=
EXTT15=
EXTT16=
EXTT17=
EXTT18=
EXTT19=
EXTT20=
EXTT21=
EXTT22=
EXTT23=
PLAYORDER=
